# MagicaVoxel @ Ephtracy

# group
o 

# material
mtllib Levl-0.mtl
usemtl palette

# normals
vn -1 0 0
vn 1 0 0
vn 0 0 1
vn 0 0 -1
vn 0 -1 0
vn 0 1 0

# texcoords
vt 0.908203 0.5
vt 0.916016 0.5

# verts
v -32.5 2.1 2.1
v -32.5 2.1 -1.9
v -32.5 10.1 2.1
v -32.5 10.1 -1.9
v -20.1 2.1 1
v -20.1 2.1 -1
v -20.1 2.6 1
v -20.1 2.6 -1
v -20.3 2.1 1
v -20.3 2.1 -1
v -20.3 5.1 1
v -20.3 5.1 -1
v -20.1 2.6 2.1
v -20.1 2.6 1.3
v -20.1 2.6 -1.2
v -20.1 2.6 -1.9
v -20.1 5.5 1.3
v -20.1 5.5 -1.2
v -20.1 6.5 2.1
v -20.1 6.5 -1.9
v -19.9 2.1 2.1
v -19.9 2.1 1.3
v -19.9 2.1 1
v -19.9 2.1 -1
v -19.9 2.1 -1.2
v -19.9 2.1 -1.9
v -19.9 2.6 2.1
v -19.9 2.6 1.3
v -19.9 2.6 1
v -19.9 2.6 -1
v -19.9 2.6 -1.2
v -19.9 2.6 -1.9
v -19.9 5.1 1
v -19.9 5.1 -1
v -19.9 5.5 1.3
v -19.9 5.5 -1.2
v -19.9 6.5 2.1
v -19.9 6.5 -1.9
v -19.9 10.1 2.1
v -19.9 10.1 -1.9
v -32.5 2.1 2.1
v -32.5 10.1 2.1
v -20.1 2.6 2.1
v -20.1 6.5 2.1
v -19.9 2.1 2.1
v -19.9 2.6 2.1
v -19.9 6.5 2.1
v -19.9 10.1 2.1
v -20.1 2.6 1.3
v -20.1 5.5 1.3
v -19.9 2.6 1.3
v -19.9 5.5 1.3
v -20.3 2.1 -1
v -20.3 5.1 -1
v -20.1 2.1 -1
v -20.1 2.6 -1
v -20.1 5.1 -1
v -19.9 2.6 -1
v -19.9 5.1 -1
v -20.3 2.1 1
v -20.3 5.1 1
v -20.1 2.1 1
v -20.1 2.6 1
v -20.1 5.1 1
v -19.9 2.6 1
v -19.9 5.1 1
v -20.1 2.6 -1.2
v -20.1 5.5 -1.2
v -19.9 2.6 -1.2
v -19.9 5.5 -1.2
v -32.5 2.1 -1.9
v -32.5 10.1 -1.9
v -20.1 2.6 -1.9
v -20.1 6.5 -1.9
v -19.9 2.1 -1.9
v -19.9 2.6 -1.9
v -19.9 6.5 -1.9
v -19.9 10.1 -1.9
v -32.5 2.1 2.1
v -19.9 2.1 2.1
v -20.1 2.1 1.3
v -19.9 2.1 1.3
v -20.3 2.1 1
v -20.1 2.1 1
v -19.9 2.1 1
v -20.3 2.1 -1
v -20.1 2.1 -1
v -19.9 2.1 -1
v -20.1 2.1 -1.2
v -19.9 2.1 -1.2
v -32.5 2.1 -1.9
v -19.9 2.1 -1.9
v -20.3 5.1 1
v -20.1 5.1 1
v -19.9 5.1 1
v -20.3 5.1 -1
v -20.1 5.1 -1
v -19.9 5.1 -1
v -20.1 6.5 2.1
v -19.9 6.5 2.1
v -20.1 6.5 -1.9
v -19.9 6.5 -1.9
v -20.1 2.6 2.1
v -19.9 2.6 2.1
v -20.1 2.6 1.3
v -19.9 2.6 1.3
v -20.1 2.6 1
v -19.9 2.6 1
v -20.1 2.6 -1
v -19.9 2.6 -1
v -20.1 2.6 -1.2
v -19.9 2.6 -1.2
v -20.1 2.6 -1.9
v -19.9 2.6 -1.9
v -20.1 5.5 1.3
v -19.9 5.5 1.3
v -20.1 5.5 -1.2
v -19.9 5.5 -1.2
v -32.5 10.1 2.1
v -19.9 10.1 2.1
v -32.5 10.1 -1.9
v -19.9 10.1 -1.9

# faces
f 3/1/1 2/1/1 1/1/1
f 4/1/1 2/1/1 3/1/1
f 7/1/1 6/1/1 5/1/1
f 8/1/1 6/1/1 7/1/1
f 9/1/2 10/1/2 11/1/2
f 11/1/2 10/1/2 12/1/2
f 13/1/2 14/1/2 17/1/2
f 15/1/2 16/1/2 18/1/2
f 13/1/2 17/1/2 19/1/2
f 17/1/2 18/1/2 19/1/2
f 18/1/2 16/1/2 20/1/2
f 19/1/2 18/1/2 20/1/2
f 21/1/2 22/1/2 27/1/2
f 22/2/2 23/2/2 28/2/2
f 27/1/2 22/1/2 28/1/2
f 23/1/2 24/1/2 29/1/2
f 28/2/2 23/2/2 29/2/2
f 24/2/2 25/2/2 30/2/2
f 29/1/2 24/1/2 30/1/2
f 25/1/2 26/1/2 31/1/2
f 30/2/2 25/2/2 31/2/2
f 31/1/2 26/1/2 32/1/2
f 28/2/2 29/2/2 33/2/2
f 30/2/2 31/2/2 34/2/2
f 28/2/2 33/2/2 35/2/2
f 33/2/2 34/2/2 35/2/2
f 34/2/2 31/2/2 36/2/2
f 35/2/2 34/2/2 36/2/2
f 37/1/2 38/1/2 39/1/2
f 39/1/2 38/1/2 40/1/2
f 43/1/3 42/1/3 41/1/3
f 44/1/3 42/1/3 43/1/3
f 45/1/3 43/1/3 41/1/3
f 46/1/3 43/1/3 45/1/3
f 47/1/3 42/1/3 44/1/3
f 48/1/3 42/1/3 47/1/3
f 51/2/3 50/2/3 49/2/3
f 52/2/3 50/2/3 51/2/3
f 55/1/3 54/1/3 53/1/3
f 56/1/3 54/1/3 55/1/3
f 57/1/3 54/1/3 56/1/3
f 58/2/3 57/2/3 56/2/3
f 59/2/3 57/2/3 58/2/3
f 60/1/4 61/1/4 62/1/4
f 62/1/4 61/1/4 63/1/4
f 63/1/4 61/1/4 64/1/4
f 63/2/4 64/2/4 65/2/4
f 65/2/4 64/2/4 66/2/4
f 67/2/4 68/2/4 69/2/4
f 69/2/4 68/2/4 70/2/4
f 71/1/4 72/1/4 73/1/4
f 73/1/4 72/1/4 74/1/4
f 71/1/4 73/1/4 75/1/4
f 75/1/4 73/1/4 76/1/4
f 74/1/4 72/1/4 77/1/4
f 77/1/4 72/1/4 78/1/4
f 81/1/5 80/1/5 79/1/5
f 82/1/5 80/1/5 81/1/5
f 83/1/5 81/1/5 79/1/5
f 84/2/5 82/2/5 81/2/5
f 84/1/5 81/1/5 83/1/5
f 85/2/5 82/2/5 84/2/5
f 86/1/5 83/1/5 79/1/5
f 87/1/5 85/1/5 84/1/5
f 88/1/5 85/1/5 87/1/5
f 89/1/5 87/1/5 86/1/5
f 89/2/5 88/2/5 87/2/5
f 90/2/5 88/2/5 89/2/5
f 91/1/5 86/1/5 79/1/5
f 91/1/5 89/1/5 86/1/5
f 91/1/5 90/1/5 89/1/5
f 92/1/5 90/1/5 91/1/5
f 96/1/5 94/1/5 93/1/5
f 97/2/5 95/2/5 94/2/5
f 97/1/5 94/1/5 96/1/5
f 98/2/5 95/2/5 97/2/5
f 101/1/5 100/1/5 99/1/5
f 102/1/5 100/1/5 101/1/5
f 103/1/6 104/1/6 105/1/6
f 105/1/6 104/1/6 106/1/6
f 107/1/6 108/1/6 109/1/6
f 109/1/6 108/1/6 110/1/6
f 111/1/6 112/1/6 113/1/6
f 113/1/6 112/1/6 114/1/6
f 115/2/6 116/2/6 117/2/6
f 117/2/6 116/2/6 118/2/6
f 119/1/6 120/1/6 121/1/6
f 121/1/6 120/1/6 122/1/6
