# MagicaVoxel @ Ephtracy

# group
o 

# material
mtllib Levl-14.mtl
usemtl palette

# normals
vn -1 0 0
vn 1 0 0
vn 0 0 1
vn 0 0 -1
vn 0 -1 0
vn 0 1 0

# texcoords
vt 0.884766 0.5
vt 0.908203 0.5
vt 0.916016 0.5

# verts
v -7.4 2.2 -2
v -7.4 2.2 -6
v -7.4 10.2 -2
v -7.4 10.2 -6
v -4.5 5.8 -2
v -4.5 5.8 -2.1
v -4.5 8.2 -2
v -4.5 8.2 -2.1
v -3.5 5.8 -2
v -3.5 5.8 -2.1
v -3.5 8.2 -2
v -3.5 8.2 -2.1
v -5.3 5.8 -2
v -5.3 5.8 -2.1
v -5.3 8.2 -2
v -5.3 8.2 -2.1
v -4.3 5.8 -2
v -4.3 5.8 -2.1
v -4.3 8.2 -2
v -4.3 8.2 -2.1
v 5.2 2.2 -2
v 5.2 2.2 -6
v 5.2 10.2 -2
v 5.2 10.2 -6
v -7.4 2.2 -2
v -7.4 10.2 -2
v -5.4 5.8 -2
v -5.4 8.5 -2
v -5.3 5.8 -2
v -5.3 8.2 -2
v -4.5 5.8 -2
v -4.5 8.2 -2
v -4.3 5.8 -2
v -4.3 8.2 -2
v -3.5 5.8 -2
v -3.5 8.2 -2
v -3.3 5.8 -2
v -3.3 8.5 -2
v 5.2 2.2 -2
v 5.2 10.2 -2
v -5.3 5.8 -2.1
v -5.3 8.2 -2.1
v -4.5 5.8 -2.1
v -4.5 8.2 -2.1
v -4.3 5.8 -2.1
v -4.3 8.2 -2.1
v -3.5 5.8 -2.1
v -3.5 8.2 -2.1
v -7.4 2.2 -6
v -7.4 10.2 -6
v 5.2 2.2 -6
v 5.2 10.2 -6
v -7.4 2.2 -2
v 5.2 2.2 -2
v -7.4 2.2 -6
v 5.2 2.2 -6
v -5.3 8.2 -2
v -4.5 8.2 -2
v -4.3 8.2 -2
v -3.5 8.2 -2
v -5.3 8.2 -2.1
v -4.5 8.2 -2.1
v -4.3 8.2 -2.1
v -3.5 8.2 -2.1
v -5.3 5.8 -2
v -4.5 5.8 -2
v -4.3 5.8 -2
v -3.5 5.8 -2
v -5.3 5.8 -2.1
v -4.5 5.8 -2.1
v -4.3 5.8 -2.1
v -3.5 5.8 -2.1
v -7.4 10.2 -2
v 5.2 10.2 -2
v -7.4 10.2 -6
v 5.2 10.2 -6

# faces
f 3/2/1 2/2/1 1/2/1
f 4/2/1 2/2/1 3/2/1
f 7/3/1 6/3/1 5/3/1
f 8/3/1 6/3/1 7/3/1
f 11/3/1 10/3/1 9/3/1
f 12/3/1 10/3/1 11/3/1
f 13/3/2 14/3/2 15/3/2
f 15/3/2 14/3/2 16/3/2
f 17/3/2 18/3/2 19/3/2
f 19/3/2 18/3/2 20/3/2
f 21/2/2 22/2/2 23/2/2
f 23/2/2 22/2/2 24/2/2
f 27/2/3 26/2/3 25/2/3
f 28/2/3 26/2/3 27/2/3
f 29/2/3 27/2/3 25/2/3
f 29/3/3 28/3/3 27/3/3
f 30/3/3 28/3/3 29/3/3
f 31/2/3 29/2/3 25/2/3
f 32/3/3 28/3/3 30/3/3
f 33/2/3 31/2/3 25/2/3
f 33/3/3 32/3/3 31/3/3
f 34/3/3 28/3/3 32/3/3
f 34/3/3 32/3/3 33/3/3
f 35/2/3 33/2/3 25/2/3
f 36/3/3 28/3/3 34/3/3
f 37/2/3 35/2/3 25/2/3
f 37/3/3 36/3/3 35/3/3
f 38/2/3 26/2/3 28/2/3
f 38/3/3 36/3/3 37/3/3
f 38/3/3 28/3/3 36/3/3
f 39/2/3 37/2/3 25/2/3
f 39/2/3 38/2/3 37/2/3
f 40/2/3 26/2/3 38/2/3
f 40/2/3 38/2/3 39/2/3
f 43/1/3 42/1/3 41/1/3
f 44/1/3 42/1/3 43/1/3
f 47/1/3 46/1/3 45/1/3
f 48/1/3 46/1/3 47/1/3
f 49/2/4 50/2/4 51/2/4
f 51/2/4 50/2/4 52/2/4
f 55/2/5 54/2/5 53/2/5
f 56/2/5 54/2/5 55/2/5
f 61/3/5 58/3/5 57/3/5
f 62/3/5 58/3/5 61/3/5
f 63/3/5 60/3/5 59/3/5
f 64/3/5 60/3/5 63/3/5
f 65/2/6 66/2/6 69/2/6
f 69/2/6 66/2/6 70/2/6
f 67/2/6 68/2/6 71/2/6
f 71/2/6 68/2/6 72/2/6
f 73/2/6 74/2/6 75/2/6
f 75/2/6 74/2/6 76/2/6
