# MagicaVoxel @ Ephtracy

# group
o 

# material
mtllib Levl-24.mtl
usemtl palette

# normals
vn -1 0 0
vn 1 0 0
vn 0 0 1
vn 0 0 -1
vn 0 -1 0
vn 0 1 0

# texcoords
vt 0.892578 0.5
vt 0.904297 0.5
vt 0.939453 0.5
vt 0.970703 0.5
vt 0.994141 0.5

# verts
v 5.3 2.2 2
v 5.3 2.2 -2
v 5.3 2.6 2
v 5.3 2.6 -2
v 5.3 9.8 2
v 5.3 9.8 -2
v 5.3 10.2 2
v 5.3 10.2 -2
v 7.9 2.6 2
v 7.9 2.6 -2
v 7.9 5.6 2
v 7.9 5.6 -2
v 8.3 9.7 0.5
v 8.3 9.7 -1.2666e-007
v 8.3 9.8 0.5
v 8.3 9.8 -1.2666e-007
v 8.4 9.6 0.5
v 8.4 9.6 -1.2666e-007
v 8.4 9.7 0.6
v 8.4 9.7 0.5
v 8.4 9.7 -1.2666e-007
v 8.4 9.7 -0.1
v 8.4 9.8 0.6
v 8.4 9.8 0.5
v 8.4 9.8 -1.2666e-007
v 8.4 9.8 -0.1
v 8.5 9.5 0.6
v 8.5 9.5 0.5
v 8.5 9.5 0.4
v 8.5 9.5 0.0999999
v 8.5 9.5 -1.2666e-007
v 8.5 9.5 -0.1
v 8.5 9.6 0.5
v 8.5 9.6 0.4
v 8.5 9.6 0.0999999
v 8.5 9.6 -1.2666e-007
v 8.5 9.7 0.7
v 8.5 9.7 0.6
v 8.5 9.7 0.5
v 8.5 9.7 -1.2666e-007
v 8.5 9.7 -0.1
v 8.5 9.7 -0.2
v 8.5 9.8 0.7
v 8.5 9.8 0.6
v 8.5 9.8 -0.1
v 8.5 9.8 -0.2
v 8.6 9.4 0.5
v 8.6 9.4 0.4
v 8.6 9.4 0.0999999
v 8.6 9.4 -1.2666e-007
v 8.6 9.5 0.5
v 8.6 9.5 0.4
v 8.6 9.5 0.0999999
v 8.6 9.5 -1.2666e-007
v 8.6 9.6 0.7
v 8.6 9.6 0.6
v 8.6 9.6 0.5
v 8.6 9.6 0.4
v 8.6 9.6 0.0999999
v 8.6 9.6 -1.2666e-007
v 8.6 9.6 -0.1
v 8.6 9.6 -0.2
v 8.6 9.7 0.8
v 8.6 9.7 0.7
v 8.6 9.7 0.6
v 8.6 9.7 -0.1
v 8.6 9.7 -0.2
v 8.6 9.7 -0.3
v 8.6 9.8 0.8
v 8.6 9.8 0.7
v 8.6 9.8 -0.2
v 8.6 9.8 -0.3
v 8.7 9.5 0.6
v 8.7 9.5 0.5
v 8.7 9.5 -1.2666e-007
v 8.7 9.5 -0.1
v 8.7 9.6 0.6
v 8.7 9.6 0.5
v 8.7 9.6 -1.2666e-007
v 8.7 9.6 -0.1
v 9.1 9.5 0.6
v 9.1 9.5 0.5
v 9.1 9.5 -1.2666e-007
v 9.1 9.5 -0.1
v 9.1 9.6 0.6
v 9.1 9.6 0.5
v 9.1 9.6 -1.2666e-007
v 9.1 9.6 -0.1
v 9.2 9.7 -1.2666e-007
v 9.2 9.7 -0.1
v 9.2 9.8 -1.2666e-007
v 9.2 9.8 -0.1
v 12 2.6 2
v 12 2.6 -2
v 12 4.1 2
v 12 4.1 -2
v 13.4 7 2
v 13.4 7 -2
v 13.4 9.8 2
v 13.4 9.8 -2
v 13.7 7.5 -1.9
v 13.7 7.5 -2
v 13.7 7.8 -1.9
v 13.7 7.8 -2
v 15.9 2.6 2
v 15.9 2.6 -2
v 15.9 4.6 2
v 15.9 4.6 -2
v 8.6 9.5 0.6
v 8.6 9.5 0.5
v 8.6 9.5 -1.2666e-007
v 8.6 9.5 -0.1
v 8.6 9.6 0.6
v 8.6 9.6 0.5
v 8.6 9.6 -1.2666e-007
v 8.6 9.6 -0.1
v 9 9.5 0.6
v 9 9.5 0.5
v 9 9.5 -1.2666e-007
v 9 9.5 -0.1
v 9 9.6 0.6
v 9 9.6 0.5
v 9 9.6 -1.2666e-007
v 9 9.6 -0.1
v 9.1 9.4 0.5
v 9.1 9.4 0.4
v 9.1 9.4 0.0999999
v 9.1 9.4 -1.2666e-007
v 9.1 9.5 0.5
v 9.1 9.5 0.4
v 9.1 9.5 0.0999999
v 9.1 9.5 -1.2666e-007
v 9.1 9.6 0.7
v 9.1 9.6 0.6
v 9.1 9.6 0.5
v 9.1 9.6 0.4
v 9.1 9.6 0.0999999
v 9.1 9.6 -1.2666e-007
v 9.1 9.6 -0.1
v 9.1 9.6 -0.2
v 9.1 9.7 0.8
v 9.1 9.7 0.7
v 9.1 9.7 0.6
v 9.1 9.7 -1.2666e-007
v 9.1 9.7 -0.1
v 9.1 9.7 -0.2
v 9.1 9.7 -0.3
v 9.1 9.8 0.8
v 9.1 9.8 0.7
v 9.1 9.8 -1.2666e-007
v 9.1 9.8 -0.1
v 9.1 9.8 -0.2
v 9.1 9.8 -0.3
v 9.2 9.5 0.6
v 9.2 9.5 0.5
v 9.2 9.5 0.4
v 9.2 9.5 0.0999999
v 9.2 9.5 -1.2666e-007
v 9.2 9.5 -0.1
v 9.2 9.6 0.5
v 9.2 9.6 0.4
v 9.2 9.6 0.0999999
v 9.2 9.6 -1.2666e-007
v 9.2 9.6 -0.1
v 9.2 9.7 0.7
v 9.2 9.7 0.6
v 9.2 9.7 0.5
v 9.2 9.7 -0.1
v 9.2 9.7 -0.2
v 9.2 9.8 0.7
v 9.2 9.8 0.6
v 9.2 9.8 -0.1
v 9.2 9.8 -0.2
v 9.3 9.6 0.5
v 9.3 9.6 -1.2666e-007
v 9.3 9.7 0.6
v 9.3 9.7 0.5
v 9.3 9.7 -1.2666e-007
v 9.3 9.7 -0.1
v 9.3 9.8 0.6
v 9.3 9.8 0.5
v 9.3 9.8 -1.2666e-007
v 9.3 9.8 -0.1
v 9.4 9.7 0.5
v 9.4 9.7 -1.2666e-007
v 9.4 9.8 0.5
v 9.4 9.8 -1.2666e-007
v 10.6 2.6 2
v 10.6 2.6 -2
v 10.6 5.6 2
v 10.6 5.6 -2
v 13.6 7.5 -1.9
v 13.6 7.5 -2
v 13.6 7.8 -1.9
v 13.6 7.8 -2
v 14.4 2.6 2
v 14.4 2.6 -2
v 14.4 4.1 2
v 14.4 4.1 -2
v 14.4 7.8 2
v 14.4 7.8 -2
v 14.4 9.8 2
v 14.4 9.8 -2
v 15.3 9.8 2
v 15.3 9.8 -2
v 15.3 10.2 2
v 15.3 10.2 -2
v 16.5 7 2
v 16.5 7 -2
v 16.5 7.8 2
v 16.5 7.8 -2
v 17.9 2.2 2
v 17.9 2.2 -2
v 17.9 2.6 2
v 17.9 2.6 -2
v 17.9 4.6 2
v 17.9 4.6 -2
v 5.3 2.2 2
v 5.3 2.6 2
v 5.3 9.8 2
v 5.3 10.2 2
v 7.9 2.6 2
v 7.9 5.6 2
v 10.6 2.6 2
v 10.6 5.6 2
v 12 2.6 2
v 12 4.1 2
v 13.4 7 2
v 13.4 9.8 2
v 14.4 2.6 2
v 14.4 4.1 2
v 14.4 7.8 2
v 14.4 9.8 2
v 15.3 9.8 2
v 15.3 10.2 2
v 15.9 2.6 2
v 15.9 4.6 2
v 16.5 7 2
v 16.5 7.8 2
v 17.9 2.2 2
v 17.9 2.6 2
v 17.9 4.6 2
v 8.6 9.7 0.8
v 8.6 9.8 0.8
v 9.1 9.7 0.8
v 9.1 9.8 0.8
v 8.5 9.7 0.7
v 8.5 9.8 0.7
v 8.6 9.6 0.7
v 8.6 9.7 0.7
v 8.6 9.8 0.7
v 9.1 9.6 0.7
v 9.1 9.7 0.7
v 9.1 9.8 0.7
v 9.2 9.7 0.7
v 9.2 9.8 0.7
v 8.4 9.7 0.6
v 8.4 9.8 0.6
v 8.5 9.5 0.6
v 8.5 9.7 0.6
v 8.5 9.8 0.6
v 8.6 9.5 0.6
v 8.6 9.6 0.6
v 8.6 9.7 0.6
v 8.7 9.5 0.6
v 8.7 9.6 0.6
v 9 9.5 0.6
v 9 9.6 0.6
v 9.1 9.5 0.6
v 9.1 9.6 0.6
v 9.1 9.7 0.6
v 9.2 9.5 0.6
v 9.2 9.7 0.6
v 9.2 9.8 0.6
v 9.3 9.7 0.6
v 9.3 9.8 0.6
v 8.3 9.7 0.5
v 8.3 9.8 0.5
v 8.4 9.6 0.5
v 8.4 9.7 0.5
v 8.4 9.8 0.5
v 8.5 9.6 0.5
v 8.5 9.7 0.5
v 8.6 9.4 0.5
v 8.6 9.5 0.5
v 8.6 9.6 0.5
v 8.7 9.4 0.5
v 8.7 9.5 0.5
v 8.7 9.6 0.5
v 9 9.4 0.5
v 9 9.5 0.5
v 9 9.6 0.5
v 9.1 9.4 0.5
v 9.1 9.5 0.5
v 9.1 9.6 0.5
v 9.2 9.6 0.5
v 9.2 9.7 0.5
v 9.3 9.6 0.5
v 9.3 9.7 0.5
v 9.3 9.8 0.5
v 9.4 9.7 0.5
v 9.4 9.8 0.5
v 8.5 9.5 0.4
v 8.5 9.6 0.4
v 8.6 9.5 0.4
v 8.6 9.6 0.4
v 9.1 9.5 0.4
v 9.1 9.6 0.4
v 9.2 9.5 0.4
v 9.2 9.6 0.4
v 8.5 9.5 -1.2666e-007
v 8.5 9.6 -1.2666e-007
v 8.6 9.5 -1.2666e-007
v 8.6 9.6 -1.2666e-007
v 9.1 9.5 -1.2666e-007
v 9.1 9.6 -1.2666e-007
v 9.2 9.5 -1.2666e-007
v 9.2 9.6 -1.2666e-007
v 9.1 9.7 -0.1
v 9.1 9.8 -0.1
v 9.2 9.7 -0.1
v 9.2 9.8 -0.1
v 8.5 9.5 0.5
v 8.5 9.6 0.5
v 8.6 9.5 0.5
v 8.6 9.6 0.5
v 9.1 9.5 0.5
v 9.1 9.6 0.5
v 9.2 9.5 0.5
v 9.2 9.6 0.5
v 8.5 9.5 0.0999999
v 8.5 9.6 0.0999999
v 8.6 9.5 0.0999999
v 8.6 9.6 0.0999999
v 9.1 9.5 0.0999999
v 9.1 9.6 0.0999999
v 9.2 9.5 0.0999999
v 9.2 9.6 0.0999999
v 8.3 9.7 -1.2666e-007
v 8.3 9.8 -1.2666e-007
v 8.4 9.6 -1.2666e-007
v 8.4 9.7 -1.2666e-007
v 8.4 9.8 -1.2666e-007
v 8.5 9.6 -1.2666e-007
v 8.5 9.7 -1.2666e-007
v 8.6 9.4 -1.2666e-007
v 8.6 9.5 -1.2666e-007
v 8.6 9.6 -1.2666e-007
v 8.7 9.4 -1.2666e-007
v 8.7 9.5 -1.2666e-007
v 8.7 9.6 -1.2666e-007
v 9 9.4 -1.2666e-007
v 9 9.5 -1.2666e-007
v 9 9.6 -1.2666e-007
v 9.1 9.4 -1.2666e-007
v 9.1 9.5 -1.2666e-007
v 9.1 9.6 -1.2666e-007
v 9.1 9.7 -1.2666e-007
v 9.1 9.8 -1.2666e-007
v 9.2 9.6 -1.2666e-007
v 9.2 9.7 -1.2666e-007
v 9.2 9.8 -1.2666e-007
v 9.3 9.6 -1.2666e-007
v 9.3 9.7 -1.2666e-007
v 9.3 9.8 -1.2666e-007
v 9.4 9.7 -1.2666e-007
v 9.4 9.8 -1.2666e-007
v 8.4 9.7 -0.1
v 8.4 9.8 -0.1
v 8.5 9.5 -0.1
v 8.5 9.7 -0.1
v 8.5 9.8 -0.1
v 8.6 9.5 -0.1
v 8.6 9.6 -0.1
v 8.6 9.7 -0.1
v 8.7 9.5 -0.1
v 8.7 9.6 -0.1
v 9 9.5 -0.1
v 9 9.6 -0.1
v 9.1 9.5 -0.1
v 9.1 9.6 -0.1
v 9.2 9.5 -0.1
v 9.2 9.6 -0.1
v 9.2 9.7 -0.1
v 9.2 9.8 -0.1
v 9.3 9.7 -0.1
v 9.3 9.8 -0.1
v 8.5 9.7 -0.2
v 8.5 9.8 -0.2
v 8.6 9.6 -0.2
v 8.6 9.7 -0.2
v 8.6 9.8 -0.2
v 9.1 9.6 -0.2
v 9.1 9.7 -0.2
v 9.1 9.8 -0.2
v 9.2 9.7 -0.2
v 9.2 9.8 -0.2
v 8.6 9.7 -0.3
v 8.6 9.8 -0.3
v 9.1 9.7 -0.3
v 9.1 9.8 -0.3
v 13.6 7.5 -1.9
v 13.6 7.8 -1.9
v 13.7 7.5 -1.9
v 13.7 7.8 -1.9
v 5.3 2.2 -2
v 5.3 2.6 -2
v 5.3 9.8 -2
v 5.3 10.2 -2
v 7.9 2.6 -2
v 7.9 5.6 -2
v 10.6 2.6 -2
v 10.6 5.6 -2
v 12 2.6 -2
v 12 4.1 -2
v 13.4 7 -2
v 13.4 9.8 -2
v 13.6 7.5 -2
v 13.6 7.8 -2
v 13.7 7.5 -2
v 13.7 7.8 -2
v 14.4 2.6 -2
v 14.4 4.1 -2
v 14.4 7.8 -2
v 14.4 9.8 -2
v 15.3 9.8 -2
v 15.3 10.2 -2
v 15.9 2.6 -2
v 15.9 4.6 -2
v 16.5 7 -2
v 16.5 7.8 -2
v 17.9 2.2 -2
v 17.9 2.6 -2
v 17.9 4.6 -2
v 5.3 2.2 2
v 17.9 2.2 2
v 5.3 2.2 -2
v 17.9 2.2 -2
v 13.4 7 2
v 16.5 7 2
v 13.4 7 -2
v 16.5 7 -2
v 13.6 7.8 -1.9
v 13.7 7.8 -1.9
v 13.6 7.8 -2
v 13.7 7.8 -2
v 8.6 9.4 0.5
v 8.7 9.4 0.5
v 9 9.4 0.5
v 9.1 9.4 0.5
v 8.6 9.4 0.4
v 8.7 9.4 0.4
v 8.8 9.4 0.4
v 8.9 9.4 0.4
v 9 9.4 0.4
v 9.1 9.4 0.4
v 8.7 9.4 0.3
v 8.8 9.4 0.3
v 8.9 9.4 0.3
v 9 9.4 0.3
v 8.7 9.4 0.2
v 8.8 9.4 0.2
v 8.9 9.4 0.2
v 9 9.4 0.2
v 8.6 9.4 0.0999999
v 8.7 9.4 0.0999999
v 8.8 9.4 0.0999999
v 8.9 9.4 0.0999999
v 9 9.4 0.0999999
v 9.1 9.4 0.0999999
v 8.6 9.4 -1.2666e-007
v 8.7 9.4 -1.2666e-007
v 9 9.4 -1.2666e-007
v 9.1 9.4 -1.2666e-007
v 8.5 9.5 0.6
v 8.6 9.5 0.6
v 8.7 9.5 0.6
v 9 9.5 0.6
v 9.1 9.5 0.6
v 9.2 9.5 0.6
v 8.5 9.5 0.5
v 8.6 9.5 0.5
v 8.7 9.5 0.5
v 9 9.5 0.5
v 9.1 9.5 0.5
v 9.2 9.5 0.5
v 8.5 9.5 0.4
v 8.6 9.5 0.4
v 9.1 9.5 0.4
v 9.2 9.5 0.4
v 8.5 9.5 0.0999999
v 8.6 9.5 0.0999999
v 9.1 9.5 0.0999999
v 9.2 9.5 0.0999999
v 8.5 9.5 -1.2666e-007
v 8.6 9.5 -1.2666e-007
v 8.7 9.5 -1.2666e-007
v 9 9.5 -1.2666e-007
v 9.1 9.5 -1.2666e-007
v 9.2 9.5 -1.2666e-007
v 8.5 9.5 -0.1
v 8.6 9.5 -0.1
v 8.7 9.5 -0.1
v 9 9.5 -0.1
v 9.1 9.5 -0.1
v 9.2 9.5 -0.1
v 8.6 9.6 0.7
v 9.1 9.6 0.7
v 8.6 9.6 0.6
v 8.7 9.6 0.6
v 9 9.6 0.6
v 9.1 9.6 0.6
v 8.4 9.6 0.5
v 8.5 9.6 0.5
v 8.6 9.6 0.5
v 8.7 9.6 0.5
v 9 9.6 0.5
v 9.1 9.6 0.5
v 9.2 9.6 0.5
v 9.3 9.6 0.5
v 8.5 9.6 0.4
v 8.6 9.6 0.4
v 9.1 9.6 0.4
v 9.2 9.6 0.4
v 8.5 9.6 0.0999999
v 8.6 9.6 0.0999999
v 9.1 9.6 0.0999999
v 9.2 9.6 0.0999999
v 8.4 9.6 -1.2666e-007
v 8.5 9.6 -1.2666e-007
v 8.6 9.6 -1.2666e-007
v 8.7 9.6 -1.2666e-007
v 9 9.6 -1.2666e-007
v 9.1 9.6 -1.2666e-007
v 9.2 9.6 -1.2666e-007
v 9.3 9.6 -1.2666e-007
v 8.6 9.6 -0.1
v 8.7 9.6 -0.1
v 9 9.6 -0.1
v 9.1 9.6 -0.1
v 8.6 9.6 -0.2
v 9.1 9.6 -0.2
v 8.6 9.7 0.8
v 9.1 9.7 0.8
v 8.5 9.7 0.7
v 8.6 9.7 0.7
v 9.1 9.7 0.7
v 9.2 9.7 0.7
v 8.4 9.7 0.6
v 8.5 9.7 0.6
v 8.6 9.7 0.6
v 9.1 9.7 0.6
v 9.2 9.7 0.6
v 9.3 9.7 0.6
v 8.3 9.7 0.5
v 8.4 9.7 0.5
v 8.5 9.7 0.5
v 9.2 9.7 0.5
v 9.3 9.7 0.5
v 9.4 9.7 0.5
v 8.3 9.7 -1.2666e-007
v 8.4 9.7 -1.2666e-007
v 8.5 9.7 -1.2666e-007
v 9.2 9.7 -1.2666e-007
v 9.3 9.7 -1.2666e-007
v 9.4 9.7 -1.2666e-007
v 8.4 9.7 -0.1
v 8.5 9.7 -0.1
v 8.6 9.7 -0.1
v 9.1 9.7 -0.1
v 9.2 9.7 -0.1
v 9.3 9.7 -0.1
v 8.5 9.7 -0.2
v 8.6 9.7 -0.2
v 9.1 9.7 -0.2
v 9.2 9.7 -0.2
v 8.6 9.7 -0.3
v 9.1 9.7 -0.3
v 5.3 9.8 2
v 13.4 9.8 2
v 14.4 9.8 2
v 15.3 9.8 2
v 8.6 9.8 0.8
v 9.1 9.8 0.8
v 8.5 9.8 0.7
v 8.6 9.8 0.7
v 9.1 9.8 0.7
v 9.2 9.8 0.7
v 8.4 9.8 0.6
v 8.5 9.8 0.6
v 9.2 9.8 0.6
v 9.3 9.8 0.6
v 8.3 9.8 0.5
v 8.4 9.8 0.5
v 9.3 9.8 0.5
v 9.4 9.8 0.5
v 8.3 9.8 -1.2666e-007
v 8.4 9.8 -1.2666e-007
v 9.1 9.8 -1.2666e-007
v 9.2 9.8 -1.2666e-007
v 9.3 9.8 -1.2666e-007
v 9.4 9.8 -1.2666e-007
v 8.4 9.8 -0.1
v 8.5 9.8 -0.1
v 9.1 9.8 -0.1
v 9.2 9.8 -0.1
v 9.3 9.8 -0.1
v 8.5 9.8 -0.2
v 8.6 9.8 -0.2
v 9.1 9.8 -0.2
v 9.2 9.8 -0.2
v 8.6 9.8 -0.3
v 9.1 9.8 -0.3
v 5.3 9.8 -2
v 13.4 9.8 -2
v 14.4 9.8 -2
v 15.3 9.8 -2
v 5.3 2.6 2
v 7.9 2.6 2
v 10.6 2.6 2
v 12 2.6 2
v 14.4 2.6 2
v 15.9 2.6 2
v 5.3 2.6 -2
v 7.9 2.6 -2
v 10.6 2.6 -2
v 12 2.6 -2
v 14.4 2.6 -2
v 15.9 2.6 -2
v 12 4.1 2
v 14.4 4.1 2
v 12 4.1 -2
v 14.4 4.1 -2
v 15.9 4.6 2
v 17.9 4.6 2
v 15.9 4.6 -2
v 17.9 4.6 -2
v 7.9 5.6 2
v 10.6 5.6 2
v 7.9 5.6 -2
v 10.6 5.6 -2
v 13.6 7.5 -1.9
v 13.7 7.5 -1.9
v 13.6 7.5 -2
v 13.7 7.5 -2
v 14.4 7.8 2
v 16.5 7.8 2
v 14.4 7.8 -2
v 16.5 7.8 -2
v 9.1 9.6 -1.2666e-007
v 9.2 9.6 -1.2666e-007
v 9.1 9.6 -0.1
v 9.2 9.6 -0.1
v 5.3 10.2 2
v 15.3 10.2 2
v 5.3 10.2 -2
v 15.3 10.2 -2

# faces
f 3/4/1 2/4/1 1/4/1
f 4/4/1 2/4/1 3/4/1
f 7/4/1 6/4/1 5/4/1
f 8/4/1 6/4/1 7/4/1
f 11/3/1 10/3/1 9/3/1
f 12/3/1 10/3/1 11/3/1
f 15/2/1 14/2/1 13/2/1
f 16/2/1 14/2/1 15/2/1
f 20/1/1 18/1/1 17/1/1
f 21/1/1 18/1/1 20/1/1
f 23/2/1 20/2/1 19/2/1
f 24/2/1 20/2/1 23/2/1
f 25/2/1 22/2/1 21/2/1
f 26/2/1 22/2/1 25/2/1
f 33/5/1 28/5/1 27/5/1
f 34/1/1 30/1/1 29/1/1
f 35/1/1 30/1/1 34/1/1
f 36/5/1 32/5/1 31/5/1
f 38/5/1 33/5/1 27/5/1
f 39/5/1 33/5/1 38/5/1
f 40/5/1 32/5/1 36/5/1
f 41/5/1 32/5/1 40/5/1
f 43/2/1 38/2/1 37/2/1
f 44/2/1 38/2/1 43/2/1
f 45/2/1 42/2/1 41/2/1
f 46/2/1 42/2/1 45/2/1
f 51/5/1 48/5/1 47/5/1
f 52/1/1 49/1/1 48/1/1
f 52/5/1 48/5/1 51/5/1
f 53/5/1 50/5/1 49/5/1
f 53/1/1 49/1/1 52/1/1
f 54/5/1 50/5/1 53/5/1
f 57/5/1 52/5/1 51/5/1
f 58/5/1 52/5/1 57/5/1
f 59/5/1 54/5/1 53/5/1
f 60/5/1 54/5/1 59/5/1
f 64/1/1 56/1/1 55/1/1
f 65/1/1 56/1/1 64/1/1
f 66/1/1 62/1/1 61/1/1
f 67/1/1 62/1/1 66/1/1
f 69/2/1 64/2/1 63/2/1
f 70/2/1 64/2/1 69/2/1
f 71/2/1 68/2/1 67/2/1
f 72/2/1 68/2/1 71/2/1
f 77/1/1 74/1/1 73/1/1
f 78/1/1 74/1/1 77/1/1
f 79/1/1 76/1/1 75/1/1
f 80/1/1 76/1/1 79/1/1
f 85/5/1 82/5/1 81/5/1
f 86/5/1 82/5/1 85/5/1
f 87/5/1 84/5/1 83/5/1
f 88/5/1 84/5/1 87/5/1
f 91/2/1 90/2/1 89/2/1
f 92/2/1 90/2/1 91/2/1
f 95/3/1 94/3/1 93/3/1
f 96/3/1 94/3/1 95/3/1
f 99/3/1 98/3/1 97/3/1
f 100/3/1 98/3/1 99/3/1
f 103/3/1 102/3/1 101/3/1
f 104/3/1 102/3/1 103/3/1
f 107/3/1 106/3/1 105/3/1
f 108/3/1 106/3/1 107/3/1
f 109/5/2 110/5/2 113/5/2
f 113/5/2 110/5/2 114/5/2
f 111/5/2 112/5/2 115/5/2
f 115/5/2 112/5/2 116/5/2
f 117/1/2 118/1/2 121/1/2
f 121/1/2 118/1/2 122/1/2
f 119/1/2 120/1/2 123/1/2
f 123/1/2 120/1/2 124/1/2
f 125/5/2 126/5/2 129/5/2
f 126/1/2 127/1/2 130/1/2
f 129/5/2 126/5/2 130/5/2
f 127/5/2 128/5/2 131/5/2
f 130/1/2 127/1/2 131/1/2
f 131/5/2 128/5/2 132/5/2
f 129/5/2 130/5/2 135/5/2
f 135/5/2 130/5/2 136/5/2
f 131/5/2 132/5/2 137/5/2
f 137/5/2 132/5/2 138/5/2
f 133/1/2 134/1/2 142/1/2
f 142/1/2 134/1/2 143/1/2
f 139/1/2 140/1/2 144/1/2
f 138/1/2 139/1/2 144/1/2
f 144/1/2 140/1/2 145/1/2
f 145/1/2 140/1/2 146/1/2
f 141/2/2 142/2/2 148/2/2
f 148/2/2 142/2/2 149/2/2
f 144/2/2 145/2/2 150/2/2
f 150/2/2 145/2/2 151/2/2
f 146/2/2 147/2/2 152/2/2
f 152/2/2 147/2/2 153/2/2
f 154/5/2 155/5/2 160/5/2
f 156/1/2 157/1/2 161/1/2
f 161/1/2 157/1/2 162/1/2
f 158/5/2 159/5/2 163/5/2
f 163/5/2 159/5/2 164/5/2
f 154/5/2 160/5/2 166/5/2
f 166/5/2 160/5/2 167/5/2
f 165/2/2 166/2/2 170/2/2
f 170/2/2 166/2/2 171/2/2
f 168/2/2 169/2/2 172/2/2
f 172/2/2 169/2/2 173/2/2
f 174/1/2 175/1/2 177/1/2
f 177/1/2 175/1/2 178/1/2
f 176/2/2 177/2/2 180/2/2
f 180/2/2 177/2/2 181/2/2
f 178/2/2 179/2/2 182/2/2
f 182/2/2 179/2/2 183/2/2
f 184/2/2 185/2/2 186/2/2
f 186/2/2 185/2/2 187/2/2
f 188/3/2 189/3/2 190/3/2
f 190/3/2 189/3/2 191/3/2
f 192/3/2 193/3/2 194/3/2
f 194/3/2 193/3/2 195/3/2
f 196/3/2 197/3/2 198/3/2
f 198/3/2 197/3/2 199/3/2
f 200/3/2 201/3/2 202/3/2
f 202/3/2 201/3/2 203/3/2
f 204/4/2 205/4/2 206/4/2
f 206/4/2 205/4/2 207/4/2
f 208/3/2 209/3/2 210/3/2
f 210/3/2 209/3/2 211/3/2
f 212/4/2 213/4/2 214/4/2
f 214/4/2 213/4/2 215/4/2
f 214/3/2 215/3/2 216/3/2
f 216/3/2 215/3/2 217/3/2
f 222/4/3 219/4/3 218/4/3
f 224/4/3 222/4/3 218/4/3
f 224/3/3 223/3/3 222/3/3
f 225/3/3 223/3/3 224/3/3
f 226/4/3 224/4/3 218/4/3
f 229/4/3 221/4/3 220/4/3
f 230/4/3 226/4/3 218/4/3
f 230/3/3 227/3/3 226/3/3
f 231/3/3 227/3/3 230/3/3
f 232/3/3 229/3/3 228/3/3
f 233/4/3 221/4/3 229/4/3
f 233/3/3 229/3/3 232/3/3
f 234/4/3 221/4/3 233/4/3
f 235/4/3 221/4/3 234/4/3
f 236/4/3 230/4/3 218/4/3
f 238/3/3 232/3/3 228/3/3
f 239/3/3 232/3/3 238/3/3
f 240/4/3 236/4/3 218/4/3
f 241/3/3 237/3/3 236/3/3
f 241/4/3 236/4/3 240/4/3
f 242/3/3 237/3/3 241/3/3
f 245/2/3 244/2/3 243/2/3
f 246/2/3 244/2/3 245/2/3
f 250/2/3 248/2/3 247/2/3
f 251/2/3 248/2/3 250/2/3
f 252/1/3 250/1/3 249/1/3
f 253/1/3 250/1/3 252/1/3
f 255/2/3 254/2/3 253/2/3
f 256/2/3 254/2/3 255/2/3
f 260/2/3 258/2/3 257/2/3
f 261/2/3 258/2/3 260/2/3
f 262/5/3 260/5/3 259/5/3
f 263/5/3 260/5/3 262/5/3
f 264/5/3 260/5/3 263/5/3
f 267/1/3 266/1/3 265/1/3
f 268/1/3 266/1/3 267/1/3
f 272/5/3 270/5/3 269/5/3
f 272/5/3 271/5/3 270/5/3
f 273/5/3 271/5/3 272/5/3
f 275/2/3 274/2/3 273/2/3
f 276/2/3 274/2/3 275/2/3
f 280/2/3 278/2/3 277/2/3
f 281/2/3 278/2/3 280/2/3
f 282/1/3 280/1/3 279/1/3
f 283/1/3 280/1/3 282/1/3
f 287/5/3 285/5/3 284/5/3
f 287/5/3 286/5/3 285/5/3
f 288/5/3 286/5/3 287/5/3
f 289/5/3 286/5/3 288/5/3
f 290/1/3 288/1/3 287/1/3
f 291/1/3 288/1/3 290/1/3
f 293/5/3 291/5/3 290/5/3
f 293/5/3 292/5/3 291/5/3
f 294/5/3 292/5/3 293/5/3
f 295/5/3 292/5/3 294/5/3
f 298/1/3 297/1/3 296/1/3
f 299/1/3 297/1/3 298/1/3
f 301/2/3 300/2/3 299/2/3
f 302/2/3 300/2/3 301/2/3
f 305/1/3 304/1/3 303/1/3
f 306/1/3 304/1/3 305/1/3
f 309/1/3 308/1/3 307/1/3
f 310/1/3 308/1/3 309/1/3
f 313/5/3 312/5/3 311/5/3
f 314/5/3 312/5/3 313/5/3
f 317/5/3 316/5/3 315/5/3
f 318/5/3 316/5/3 317/5/3
f 321/2/3 320/2/3 319/2/3
f 322/2/3 320/2/3 321/2/3
f 323/5/4 324/5/4 325/5/4
f 325/5/4 324/5/4 326/5/4
f 327/5/4 328/5/4 329/5/4
f 329/5/4 328/5/4 330/5/4
f 331/1/4 332/1/4 333/1/4
f 333/1/4 332/1/4 334/1/4
f 335/1/4 336/1/4 337/1/4
f 337/1/4 336/1/4 338/1/4
f 339/2/4 340/2/4 342/2/4
f 342/2/4 340/2/4 343/2/4
f 341/1/4 342/1/4 344/1/4
f 344/1/4 342/1/4 345/1/4
f 346/5/4 347/5/4 349/5/4
f 347/5/4 348/5/4 349/5/4
f 349/5/4 348/5/4 350/5/4
f 350/5/4 348/5/4 351/5/4
f 349/1/4 350/1/4 352/1/4
f 352/1/4 350/1/4 353/1/4
f 352/5/4 353/5/4 355/5/4
f 353/5/4 354/5/4 355/5/4
f 355/5/4 354/5/4 356/5/4
f 356/5/4 354/5/4 357/5/4
f 357/1/4 358/1/4 360/1/4
f 358/2/4 359/2/4 361/2/4
f 360/1/4 358/1/4 361/1/4
f 361/2/4 359/2/4 362/2/4
f 360/1/4 361/1/4 363/1/4
f 363/1/4 361/1/4 364/1/4
f 364/2/4 365/2/4 366/2/4
f 366/2/4 365/2/4 367/2/4
f 368/2/4 369/2/4 371/2/4
f 371/2/4 369/2/4 372/2/4
f 370/5/4 371/5/4 373/5/4
f 373/5/4 371/5/4 374/5/4
f 374/5/4 371/5/4 375/5/4
f 376/1/4 377/1/4 378/1/4
f 378/1/4 377/1/4 379/1/4
f 380/5/4 381/5/4 382/5/4
f 382/5/4 381/5/4 383/5/4
f 384/2/4 385/2/4 386/2/4
f 386/2/4 385/2/4 387/2/4
f 388/2/4 389/2/4 391/2/4
f 391/2/4 389/2/4 392/2/4
f 390/1/4 391/1/4 393/1/4
f 393/1/4 391/1/4 394/1/4
f 394/2/4 395/2/4 396/2/4
f 396/2/4 395/2/4 397/2/4
f 398/2/4 399/2/4 400/2/4
f 400/2/4 399/2/4 401/2/4
f 402/3/4 403/3/4 404/3/4
f 404/3/4 403/3/4 405/3/4
f 406/4/4 407/4/4 410/4/4
f 406/4/4 410/4/4 412/4/4
f 410/3/4 411/3/4 412/3/4
f 412/3/4 411/3/4 413/3/4
f 406/4/4 412/4/4 414/4/4
f 408/4/4 409/4/4 417/4/4
f 416/3/4 417/3/4 418/3/4
f 418/3/4 417/3/4 419/3/4
f 416/3/4 418/3/4 420/3/4
f 419/3/4 417/3/4 421/3/4
f 406/4/4 414/4/4 422/4/4
f 414/3/4 415/3/4 422/3/4
f 422/3/4 415/3/4 423/3/4
f 420/3/4 421/3/4 424/3/4
f 421/3/4 417/3/4 424/3/4
f 417/4/4 409/4/4 425/4/4
f 424/3/4 417/3/4 425/3/4
f 425/4/4 409/4/4 426/4/4
f 426/4/4 409/4/4 427/4/4
f 406/4/4 422/4/4 428/4/4
f 420/3/4 424/3/4 430/3/4
f 416/3/4 420/3/4 430/3/4
f 430/3/4 424/3/4 431/3/4
f 406/4/4 428/4/4 432/4/4
f 428/3/4 429/3/4 433/3/4
f 432/4/4 428/4/4 433/4/4
f 433/3/4 429/3/4 434/3/4
f 437/4/5 436/4/5 435/4/5
f 438/4/5 436/4/5 437/4/5
f 441/3/5 440/3/5 439/3/5
f 442/3/5 440/3/5 441/3/5
f 445/3/5 444/3/5 443/3/5
f 446/3/5 444/3/5 445/3/5
f 451/5/5 448/5/5 447/5/5
f 452/1/5 449/1/5 448/1/5
f 452/5/5 448/5/5 451/5/5
f 453/1/5 449/1/5 452/1/5
f 454/1/5 449/1/5 453/1/5
f 455/5/5 450/5/5 449/5/5
f 455/1/5 449/1/5 454/1/5
f 456/5/5 450/5/5 455/5/5
f 457/1/5 452/1/5 451/1/5
f 457/5/5 453/5/5 452/5/5
f 458/1/5 454/1/5 453/1/5
f 458/5/5 453/5/5 457/5/5
f 459/5/5 455/5/5 454/5/5
f 459/1/5 454/1/5 458/1/5
f 460/1/5 456/1/5 455/1/5
f 460/5/5 455/5/5 459/5/5
f 461/1/5 457/1/5 451/1/5
f 461/1/5 458/1/5 457/1/5
f 462/5/5 459/5/5 458/5/5
f 462/1/5 458/1/5 461/1/5
f 463/1/5 460/1/5 459/1/5
f 463/5/5 459/5/5 462/5/5
f 464/1/5 456/1/5 460/1/5
f 464/1/5 460/1/5 463/1/5
f 465/1/5 461/1/5 451/1/5
f 466/5/5 462/5/5 461/5/5
f 466/1/5 461/1/5 465/1/5
f 467/1/5 463/1/5 462/1/5
f 467/5/5 462/5/5 466/5/5
f 468/5/5 464/5/5 463/5/5
f 468/1/5 463/1/5 467/1/5
f 469/1/5 456/1/5 464/1/5
f 469/5/5 464/5/5 468/5/5
f 470/1/5 456/1/5 469/1/5
f 471/5/5 466/5/5 465/5/5
f 472/1/5 468/1/5 467/1/5
f 472/5/5 466/5/5 471/5/5
f 472/1/5 467/1/5 466/1/5
f 472/1/5 469/1/5 468/1/5
f 473/5/5 470/5/5 469/5/5
f 473/1/5 469/1/5 472/1/5
f 474/5/5 470/5/5 473/5/5
f 481/5/5 476/5/5 475/5/5
f 482/5/5 476/5/5 481/5/5
f 483/1/5 478/1/5 477/1/5
f 484/1/5 478/1/5 483/1/5
f 485/5/5 480/5/5 479/5/5
f 486/5/5 480/5/5 485/5/5
f 491/1/5 488/1/5 487/1/5
f 492/1/5 488/1/5 491/1/5
f 493/1/5 490/1/5 489/1/5
f 494/1/5 490/1/5 493/1/5
f 501/5/5 496/5/5 495/5/5
f 502/5/5 496/5/5 501/5/5
f 503/1/5 498/1/5 497/1/5
f 504/1/5 498/1/5 503/1/5
f 505/5/5 500/5/5 499/5/5
f 506/5/5 500/5/5 505/5/5
f 509/1/5 508/1/5 507/1/5
f 510/1/5 508/1/5 509/1/5
f 511/1/5 508/1/5 510/1/5
f 512/1/5 508/1/5 511/1/5
f 515/1/5 510/1/5 509/1/5
f 516/1/5 510/1/5 515/1/5
f 517/1/5 512/1/5 511/1/5
f 518/1/5 512/1/5 517/1/5
f 521/1/5 514/1/5 513/1/5
f 521/1/5 515/1/5 514/1/5
f 522/1/5 515/1/5 521/1/5
f 523/1/5 520/1/5 519/1/5
f 523/1/5 519/1/5 518/1/5
f 524/1/5 520/1/5 523/1/5
f 525/1/5 521/1/5 513/1/5
f 528/1/5 520/1/5 524/1/5
f 529/1/5 526/1/5 525/1/5
f 529/1/5 525/1/5 513/1/5
f 530/1/5 526/1/5 529/1/5
f 531/1/5 526/1/5 530/1/5
f 534/1/5 528/1/5 527/1/5
f 535/1/5 520/1/5 528/1/5
f 535/1/5 528/1/5 534/1/5
f 536/1/5 520/1/5 535/1/5
f 537/1/5 532/1/5 531/1/5
f 538/1/5 532/1/5 537/1/5
f 539/1/5 534/1/5 533/1/5
f 540/1/5 534/1/5 539/1/5
f 541/1/5 538/1/5 537/1/5
f 541/1/5 539/1/5 538/1/5
f 541/1/5 540/1/5 539/1/5
f 542/1/5 540/1/5 541/1/5
f 546/2/5 544/2/5 543/2/5
f 547/2/5 544/2/5 546/2/5
f 550/2/5 546/2/5 545/2/5
f 551/2/5 546/2/5 550/2/5
f 552/2/5 548/2/5 547/2/5
f 553/2/5 548/2/5 552/2/5
f 556/2/5 550/2/5 549/2/5
f 557/2/5 550/2/5 556/2/5
f 558/2/5 554/2/5 553/2/5
f 559/2/5 554/2/5 558/2/5
f 561/2/5 556/2/5 555/2/5
f 562/2/5 556/2/5 561/2/5
f 565/2/5 560/2/5 559/2/5
f 566/2/5 560/2/5 565/2/5
f 567/2/5 563/2/5 562/2/5
f 568/2/5 563/2/5 567/2/5
f 571/2/5 565/2/5 564/2/5
f 572/2/5 565/2/5 571/2/5
f 573/2/5 569/2/5 568/2/5
f 574/2/5 569/2/5 573/2/5
f 575/2/5 571/2/5 570/2/5
f 576/2/5 571/2/5 575/2/5
f 577/2/5 575/2/5 574/2/5
f 578/2/5 575/2/5 577/2/5
f 583/4/5 580/4/5 579/4/5
f 584/4/5 580/4/5 583/4/5
f 585/4/5 583/4/5 579/4/5
f 586/4/5 583/4/5 585/4/5
f 587/4/5 580/4/5 584/4/5
f 588/4/5 580/4/5 587/4/5
f 589/4/5 585/4/5 579/4/5
f 590/4/5 585/4/5 589/4/5
f 591/4/5 580/4/5 588/4/5
f 592/4/5 580/4/5 591/4/5
f 593/4/5 589/4/5 579/4/5
f 594/4/5 589/4/5 593/4/5
f 595/4/5 580/4/5 592/4/5
f 596/4/5 580/4/5 595/4/5
f 597/4/5 593/4/5 579/4/5
f 602/4/5 580/4/5 596/4/5
f 603/4/5 598/4/5 597/4/5
f 605/4/5 600/4/5 599/4/5
f 606/4/5 600/4/5 605/4/5
f 607/4/5 602/4/5 601/4/5
f 608/4/5 604/4/5 603/4/5
f 611/4/5 607/4/5 606/4/5
f 612/4/5 609/4/5 608/4/5
f 613/4/5 611/4/5 610/4/5
f 614/4/5 612/4/5 608/4/5
f 614/4/5 613/4/5 612/4/5
f 614/4/5 597/4/5 579/4/5
f 614/4/5 603/4/5 597/4/5
f 614/4/5 608/4/5 603/4/5
f 615/4/5 611/4/5 613/4/5
f 615/4/5 613/4/5 614/4/5
f 615/4/5 602/4/5 607/4/5
f 615/4/5 580/4/5 602/4/5
f 615/4/5 607/4/5 611/4/5
f 616/4/5 582/4/5 581/4/5
f 617/4/5 582/4/5 616/4/5
f 618/4/6 619/4/6 624/4/6
f 624/4/6 619/4/6 625/4/6
f 620/4/6 621/4/6 626/4/6
f 626/4/6 621/4/6 627/4/6
f 622/4/6 623/4/6 628/4/6
f 628/4/6 623/4/6 629/4/6
f 630/3/6 631/3/6 632/3/6
f 632/3/6 631/3/6 633/3/6
f 634/3/6 635/3/6 636/3/6
f 636/3/6 635/3/6 637/3/6
f 638/3/6 639/3/6 640/3/6
f 640/3/6 639/3/6 641/3/6
f 642/3/6 643/3/6 644/3/6
f 644/3/6 643/3/6 645/3/6
f 646/3/6 647/3/6 648/3/6
f 648/3/6 647/3/6 649/3/6
f 650/5/6 651/5/6 652/5/6
f 652/5/6 651/5/6 653/5/6
f 654/4/6 655/4/6 656/4/6
f 656/4/6 655/4/6 657/4/6
