# MagicaVoxel @ Ephtracy

# group
o 

# material
mtllib untitled-0.mtl
usemtl palette

# normals
vn -1 0 0
vn 1 0 0
vn 0 0 1
vn 0 0 -1
vn 0 -1 0
vn 0 1 0

# texcoords
vt 0.876953 0.5
vt 0.880859 0.5
vt 0.947266 0.5

# verts
v -0.2 1.1 1.5
v -0.2 1.1 1.4
v -0.2 1.1 1.2
v -0.2 1.1 1.1
v -0.2 1.2 1.5
v -0.2 1.2 1.4
v -0.2 1.2 1.2
v -0.2 1.2 1.1
v -0.0999999 1.1 1.5
v -0.0999999 1.1 1.4
v -0.0999999 1.1 1.2
v -0.0999999 1.1 1.1
v -0.0999999 1.2 1.5
v -0.0999999 1.2 1.4
v -0.0999999 1.2 1.2
v -0.0999999 1.2 1.1
v -0.2 1.1 1.5
v -0.2 1.2 1.5
v -0.0999999 1.1 1.5
v -0.0999999 1.2 1.5
v -0.2 1.1 1.1
v -0.2 1.2 1.1
v -0.0999999 1.1 1.1
v -0.0999999 1.2 1.1
v -0.2 1.1 1.5
v -0.0999999 1.1 1.5
v -0.2 1.1 1.4
v -0.0999999 1.1 1.4
v -0.2 1.1 1.2
v -0.0999999 1.1 1.2
v -0.2 1.1 1.1
v -0.0999999 1.1 1.1
v -0.2 1.2 1.5
v -0.0999999 1.2 1.5
v -0.2 1.2 1.4
v -0.0999999 1.2 1.4
v -0.2 1.2 1.2
v -0.0999999 1.2 1.2
v -0.2 1.2 1.1
v -0.0999999 1.2 1.1

# faces
f 5/2/1 2/2/1 1/2/1
f 6/3/1 3/3/1 2/3/1
f 6/2/1 2/2/1 5/2/1
f 7/1/1 4/1/1 3/1/1
f 7/3/1 3/3/1 6/3/1
f 8/1/1 4/1/1 7/1/1
f 9/2/2 10/2/2 13/2/2
f 10/3/2 11/3/2 14/3/2
f 13/2/2 10/2/2 14/2/2
f 11/1/2 12/1/2 15/1/2
f 14/3/2 11/3/2 15/3/2
f 15/1/2 12/1/2 16/1/2
f 19/2/3 18/2/3 17/2/3
f 20/2/3 18/2/3 19/2/3
f 21/1/4 22/1/4 23/1/4
f 23/1/4 22/1/4 24/1/4
f 27/2/5 26/2/5 25/2/5
f 28/2/5 26/2/5 27/2/5
f 29/3/5 28/3/5 27/3/5
f 30/3/5 28/3/5 29/3/5
f 31/1/5 30/1/5 29/1/5
f 32/1/5 30/1/5 31/1/5
f 33/2/6 34/2/6 35/2/6
f 35/2/6 34/2/6 36/2/6
f 35/3/6 36/3/6 37/3/6
f 37/3/6 36/3/6 38/3/6
f 37/1/6 38/1/6 39/1/6
f 39/1/6 38/1/6 40/1/6
