# MagicaVoxel @ Ephtracy

# group
o 

# material
mtllib untitled-7.mtl
usemtl palette

# normals
vn -1 0 0
vn 1 0 0
vn 0 0 1
vn 0 0 -1
vn 0 -1 0
vn 0 1 0

# texcoords
vt 0.912109 0.5
vt 0.970703 0.5
vt 0.974609 0.5
vt 0.978516 0.5
vt 0.982422 0.5

# verts
v -0.8 -0.1 0.3
v -0.8 -0.1 -0.5
v -0.8 1.6 0.3
v -0.8 1.6 -0.5
v 0.6 -0.1 0.3
v 0.6 -0.1 -0.5
v 0.6 1.6 0.3
v 0.6 1.6 -0.5
v -0.8 -0.1 0.3
v -0.8 1.6 0.3
v -0.4 0.7 0.3
v -0.4 1.6 0.3
v -0.3 -0.1 0.3
v -0.3 0.7 0.3
v -0.2 -0.1 0.3
v -0.2 0.7 0.3
v -0.2 1.1 0.3
v 3.72529e-008 0.1 0.3
v 3.72529e-008 0.2 0.3
v 3.72529e-008 0.4 0.3
v 3.72529e-008 0.5 0.3
v 3.72529e-008 0.7 0.3
v 3.72529e-008 1.1 0.3
v 0.1 0.1 0.3
v 0.1 0.2 0.3
v 0.1 0.4 0.3
v 0.1 0.5 0.3
v 0.2 0.1 0.3
v 0.2 0.2 0.3
v 0.2 0.4 0.3
v 0.2 0.5 0.3
v 0.2 0.6 0.3
v 0.2 0.7 0.3
v 0.2 1.6 0.3
v 0.3 0.1 0.3
v 0.3 0.2 0.3
v 0.3 0.4 0.3
v 0.3 0.5 0.3
v 0.4 0.6 0.3
v 0.4 0.7 0.3
v 0.6 -0.1 0.3
v 0.6 1.6 0.3
v -0.8 -0.1 -0.5
v -0.8 1.6 -0.5
v 0.6 -0.1 -0.5
v 0.6 1.6 -0.5
v -0.8 -0.1 0.3
v -0.3 -0.1 0.3
v -0.2 -0.1 0.3
v 0.6 -0.1 0.3
v -0.3 -0.1 0.2
v -0.2 -0.1 0.2
v -0.8 -0.1 -0.5
v 0.6 -0.1 -0.5
v -0.8 1.6 0.3
v -0.4 1.6 0.3
v 0.2 1.6 0.3
v 0.6 1.6 0.3
v -0.4 1.6 0.2
v 0.2 1.6 0.2
v -0.8 1.6 -0.5
v 0.6 1.6 -0.5

# faces
f 3/2/1 2/2/1 1/2/1
f 4/2/1 2/2/1 3/2/1
f 5/2/2 6/2/2 7/2/2
f 7/2/2 6/2/2 8/2/2
f 11/2/3 10/2/3 9/2/3
f 12/2/3 10/2/3 11/2/3
f 13/2/3 11/2/3 9/2/3
f 14/3/3 12/3/3 11/3/3
f 14/2/3 11/2/3 13/2/3
f 15/1/3 14/1/3 13/1/3
f 16/3/3 12/3/3 14/3/3
f 16/1/3 14/1/3 15/1/3
f 17/3/3 12/3/3 16/3/3
f 18/2/3 16/2/3 15/2/3
f 19/2/3 16/2/3 18/2/3
f 20/2/3 16/2/3 19/2/3
f 21/2/3 16/2/3 20/2/3
f 22/4/3 17/4/3 16/4/3
f 22/2/3 16/2/3 21/2/3
f 23/3/3 12/3/3 17/3/3
f 23/4/3 17/4/3 22/4/3
f 24/2/3 18/2/3 15/2/3
f 24/1/3 19/1/3 18/1/3
f 25/2/3 20/2/3 19/2/3
f 25/1/3 19/1/3 24/1/3
f 26/1/3 21/1/3 20/1/3
f 26/2/3 20/2/3 25/2/3
f 27/2/3 22/2/3 21/2/3
f 27/1/3 21/1/3 26/1/3
f 28/2/3 26/2/3 25/2/3
f 28/2/3 25/2/3 24/2/3
f 28/2/3 27/2/3 26/2/3
f 28/2/3 24/2/3 15/2/3
f 29/2/3 27/2/3 28/2/3
f 30/2/3 27/2/3 29/2/3
f 31/2/3 22/2/3 27/2/3
f 31/2/3 27/2/3 30/2/3
f 32/2/3 22/2/3 31/2/3
f 33/3/3 23/3/3 22/3/3
f 33/2/3 22/2/3 32/2/3
f 34/3/3 12/3/3 23/3/3
f 34/3/3 23/3/3 33/3/3
f 35/2/3 28/2/3 15/2/3
f 35/1/3 29/1/3 28/1/3
f 36/2/3 30/2/3 29/2/3
f 36/1/3 29/1/3 35/1/3
f 37/1/3 31/1/3 30/1/3
f 37/2/3 30/2/3 36/2/3
f 38/2/3 32/2/3 31/2/3
f 38/1/3 31/1/3 37/1/3
f 39/2/3 37/2/3 36/2/3
f 39/2/3 32/2/3 38/2/3
f 39/2/3 38/2/3 37/2/3
f 39/2/3 36/2/3 35/2/3
f 39/5/3 33/5/3 32/5/3
f 40/2/3 34/2/3 33/2/3
f 40/5/3 33/5/3 39/5/3
f 41/2/3 35/2/3 15/2/3
f 41/2/3 39/2/3 35/2/3
f 41/2/3 40/2/3 39/2/3
f 42/2/3 34/2/3 40/2/3
f 42/2/3 40/2/3 41/2/3
f 43/2/4 44/2/4 45/2/4
f 45/2/4 44/2/4 46/2/4
f 51/2/5 48/2/5 47/2/5
f 51/1/5 49/1/5 48/1/5
f 52/2/5 50/2/5 49/2/5
f 52/1/5 49/1/5 51/1/5
f 53/2/5 51/2/5 47/2/5
f 53/2/5 52/2/5 51/2/5
f 54/2/5 50/2/5 52/2/5
f 54/2/5 52/2/5 53/2/5
f 55/2/6 56/2/6 59/2/6
f 56/3/6 57/3/6 59/3/6
f 57/2/6 58/2/6 60/2/6
f 59/3/6 57/3/6 60/3/6
f 55/2/6 59/2/6 61/2/6
f 59/2/6 60/2/6 61/2/6
f 60/2/6 58/2/6 62/2/6
f 61/2/6 60/2/6 62/2/6
