# MagicaVoxel @ Ephtracy

# group
o 

# material
mtllib Ловушки-1.mtl
usemtl palette

# normals
vn -1 0 0
vn 1 0 0
vn 0 0 1
vn 0 0 -1
vn 0 -1 0
vn 0 1 0

# texcoords
vt 0.818359 0.5
vt 0.982422 0.5

# verts
v 9.7 -1 0.8
v 9.7 -1 -0.5
v 9.7 0.5 0.8
v 9.7 0.5 -0.5
v 10.5 -1 0.8
v 10.5 -1 -0.5
v 10.5 -0.5 0.4
v 10.5 -0.5 -0.1
v 10.5 -7.45058e-009 0.4
v 10.5 -7.45058e-009 -0.1
v 10.5 0.5 0.8
v 10.5 0.5 -0.5
v 10.7 -0.4 0.3
v 10.7 -0.4 -3.72529e-008
v 10.7 -0.1 0.3
v 10.7 -0.1 -3.72529e-008
v 10.8 -0.5 0.4
v 10.8 -0.5 -0.1
v 10.8 -0.4 0.3
v 10.8 -0.4 -3.72529e-008
v 10.8 -0.1 0.3
v 10.8 -0.1 -3.72529e-008
v 10.8 -7.45058e-009 0.4
v 10.8 -7.45058e-009 -0.1
v 9.7 -1 0.8
v 9.7 0.5 0.8
v 10.5 -1 0.8
v 10.5 0.5 0.8
v 10.5 -0.5 0.4
v 10.5 -7.45058e-009 0.4
v 10.8 -0.5 0.4
v 10.8 -7.45058e-009 0.4
v 10.7 -0.4 -3.72529e-008
v 10.7 -0.1 -3.72529e-008
v 10.8 -0.4 -3.72529e-008
v 10.8 -0.1 -3.72529e-008
v 10.7 -0.4 0.3
v 10.7 -0.1 0.3
v 10.8 -0.4 0.3
v 10.8 -0.1 0.3
v 10.5 -0.5 -0.1
v 10.5 -7.45058e-009 -0.1
v 10.8 -0.5 -0.1
v 10.8 -7.45058e-009 -0.1
v 9.7 -1 -0.5
v 9.7 0.5 -0.5
v 10.5 -1 -0.5
v 10.5 0.5 -0.5
v 9.7 -1 0.8
v 10.5 -1 0.8
v 9.7 -1 -0.5
v 10.5 -1 -0.5
v 10.5 -0.5 0.4
v 10.8 -0.5 0.4
v 10.5 -0.5 -0.1
v 10.8 -0.5 -0.1
v 10.7 -0.1 0.3
v 10.8 -0.1 0.3
v 10.7 -0.1 -3.72529e-008
v 10.8 -0.1 -3.72529e-008
v 10.7 -0.4 0.3
v 10.8 -0.4 0.3
v 10.7 -0.4 -3.72529e-008
v 10.8 -0.4 -3.72529e-008
v 10.5 -7.45058e-009 0.4
v 10.8 -7.45058e-009 0.4
v 10.5 -7.45058e-009 -0.1
v 10.8 -7.45058e-009 -0.1
v 9.7 0.5 0.8
v 10.5 0.5 0.8
v 9.7 0.5 -0.5
v 10.5 0.5 -0.5

# faces
f 3/2/1 2/2/1 1/2/1
f 4/2/1 2/2/1 3/2/1
f 5/2/2 6/2/2 7/2/2
f 7/2/2 6/2/2 8/2/2
f 5/2/2 7/2/2 9/2/2
f 8/2/2 6/2/2 10/2/2
f 5/2/2 9/2/2 11/2/2
f 9/2/2 10/2/2 11/2/2
f 10/2/2 6/2/2 12/2/2
f 11/2/2 10/2/2 12/2/2
f 13/1/2 14/1/2 15/1/2
f 15/1/2 14/1/2 16/1/2
f 17/1/2 18/1/2 19/1/2
f 19/1/2 18/1/2 20/1/2
f 17/1/2 19/1/2 21/1/2
f 20/1/2 18/1/2 22/1/2
f 17/1/2 21/1/2 23/1/2
f 21/1/2 22/1/2 23/1/2
f 22/1/2 18/1/2 24/1/2
f 23/1/2 22/1/2 24/1/2
f 27/2/3 26/2/3 25/2/3
f 28/2/3 26/2/3 27/2/3
f 31/1/3 30/1/3 29/1/3
f 32/1/3 30/1/3 31/1/3
f 35/1/3 34/1/3 33/1/3
f 36/1/3 34/1/3 35/1/3
f 37/1/4 38/1/4 39/1/4
f 39/1/4 38/1/4 40/1/4
f 41/1/4 42/1/4 43/1/4
f 43/1/4 42/1/4 44/1/4
f 45/2/4 46/2/4 47/2/4
f 47/2/4 46/2/4 48/2/4
f 51/2/5 50/2/5 49/2/5
f 52/2/5 50/2/5 51/2/5
f 55/1/5 54/1/5 53/1/5
f 56/1/5 54/1/5 55/1/5
f 59/1/5 58/1/5 57/1/5
f 60/1/5 58/1/5 59/1/5
f 61/1/6 62/1/6 63/1/6
f 63/1/6 62/1/6 64/1/6
f 65/1/6 66/1/6 67/1/6
f 67/1/6 66/1/6 68/1/6
f 69/2/6 70/2/6 71/2/6
f 71/2/6 70/2/6 72/2/6
