# MagicaVoxel @ Ephtracy

# group
o 

# material
mtllib FixLevl-0.mtl
usemtl palette

# normals
vn -1 0 0
vn 1 0 0
vn 0 0 1
vn 0 0 -1
vn 0 -1 0
vn 0 1 0

# texcoords
vt 0.849609 0.5
vt 0.880859 0.5
vt 0.912109 0.5

# verts
v -11 2.2 -2.1
v -11 2.2 -2.2
v -11 3 -2.1
v -11 3 -2.2
v -11 3.3 -2.1
v -11 3.3 -2.2
v -11 6.3 -2.1
v -11 6.3 -2.2
v -11 6.4 -2.1
v -11 6.4 -2.2
v -11 6.8 -2.1
v -11 6.8 -2.2
v -11 7 -2.1
v -11 7 -2.2
v -11 8.5 -2.1
v -11 8.5 -2.2
v -11 8.7 -2.1
v -11 8.7 -2.2
v -11 8.9 -2.1
v -11 8.9 -2.2
v -11 9.1 -2.1
v -11 9.1 -2.2
v -11 10.2 -2.1
v -11 10.2 -2.2
v -10.6 2.2 -2.1
v -10.6 2.2 -2.2
v -10.6 2.5 -2.1
v -10.6 2.5 -2.2
v -10.6 2.8 -2.1
v -10.6 2.8 -2.2
v -10.6 4.5 -2.1
v -10.6 4.5 -2.2
v -10.6 4.8 -2.1
v -10.6 4.8 -2.2
v -10.6 6.2 -2.1
v -10.6 6.2 -2.2
v -10.6 6.4 -2.1
v -10.6 6.4 -2.2
v -10.6 7.9 -2.1
v -10.6 7.9 -2.2
v -10.6 8.1 -2.1
v -10.6 8.1 -2.2
v -10.6 9.8 -2.1
v -10.6 9.8 -2.2
v -10.6 10 -2.1
v -10.6 10 -2.2
v -10.6 10.2 -2.1
v -10.6 10.2 -2.2
v -11 2.2 -2.1
v -11 3 -2.1
v -11 3.3 -2.1
v -11 6.3 -2.1
v -11 6.4 -2.1
v -11 6.8 -2.1
v -11 7 -2.1
v -11 8.5 -2.1
v -11 8.7 -2.1
v -11 8.9 -2.1
v -11 9.1 -2.1
v -11 10.2 -2.1
v -10.9 2.2 -2.1
v -10.9 2.5 -2.1
v -10.9 3 -2.1
v -10.9 3.3 -2.1
v -10.9 3.7 -2.1
v -10.9 4 -2.1
v -10.9 4.6 -2.1
v -10.9 4.9 -2.1
v -10.9 5.4 -2.1
v -10.9 5.6 -2.1
v -10.9 5.9 -2.1
v -10.9 6.1 -2.1
v -10.9 6.3 -2.1
v -10.9 6.4 -2.1
v -10.9 6.8 -2.1
v -10.9 7 -2.1
v -10.9 8.5 -2.1
v -10.9 8.7 -2.1
v -10.9 8.9 -2.1
v -10.9 9.1 -2.1
v -10.9 10.1 -2.1
v -10.9 10.2 -2.1
v -10.8 2.2 -2.1
v -10.8 2.5 -2.1
v -10.8 3.4 -2.1
v -10.8 3.6 -2.1
v -10.8 3.7 -2.1
v -10.8 4 -2.1
v -10.8 4.6 -2.1
v -10.8 4.9 -2.1
v -10.8 5.4 -2.1
v -10.8 5.6 -2.1
v -10.8 5.9 -2.1
v -10.8 6.1 -2.1
v -10.8 7.2 -2.1
v -10.8 7.3 -2.1
v -10.8 7.6 -2.1
v -10.8 7.7 -2.1
v -10.8 8.3 -2.1
v -10.8 8.4 -2.1
v -10.8 9.2 -2.1
v -10.8 9.4 -2.1
v -10.8 10.1 -2.1
v -10.8 10.2 -2.1
v -10.7 2.5 -2.1
v -10.7 2.8 -2.1
v -10.7 3.4 -2.1
v -10.7 3.6 -2.1
v -10.7 4.5 -2.1
v -10.7 4.8 -2.1
v -10.7 6.2 -2.1
v -10.7 6.4 -2.1
v -10.7 7.2 -2.1
v -10.7 7.3 -2.1
v -10.7 7.6 -2.1
v -10.7 7.7 -2.1
v -10.7 7.9 -2.1
v -10.7 8.1 -2.1
v -10.7 8.3 -2.1
v -10.7 8.4 -2.1
v -10.7 9.2 -2.1
v -10.7 9.4 -2.1
v -10.7 9.8 -2.1
v -10.7 10 -2.1
v -10.6 2.2 -2.1
v -10.6 2.5 -2.1
v -10.6 2.8 -2.1
v -10.6 4.5 -2.1
v -10.6 4.8 -2.1
v -10.6 6.2 -2.1
v -10.6 6.4 -2.1
v -10.6 7.9 -2.1
v -10.6 8.1 -2.1
v -10.6 9.8 -2.1
v -10.6 10 -2.1
v -10.6 10.2 -2.1
v -11 2.2 -2.2
v -11 3 -2.2
v -11 3.3 -2.2
v -11 6.3 -2.2
v -11 6.4 -2.2
v -11 6.8 -2.2
v -11 7 -2.2
v -11 8.5 -2.2
v -11 8.7 -2.2
v -11 8.9 -2.2
v -11 9.1 -2.2
v -11 10.2 -2.2
v -10.9 2.2 -2.2
v -10.9 2.5 -2.2
v -10.9 3 -2.2
v -10.9 3.3 -2.2
v -10.9 3.7 -2.2
v -10.9 4 -2.2
v -10.9 4.6 -2.2
v -10.9 4.9 -2.2
v -10.9 5.4 -2.2
v -10.9 5.6 -2.2
v -10.9 5.9 -2.2
v -10.9 6.1 -2.2
v -10.9 6.3 -2.2
v -10.9 6.4 -2.2
v -10.9 6.8 -2.2
v -10.9 7 -2.2
v -10.9 8.5 -2.2
v -10.9 8.7 -2.2
v -10.9 8.9 -2.2
v -10.9 9.1 -2.2
v -10.9 10.1 -2.2
v -10.9 10.2 -2.2
v -10.8 2.2 -2.2
v -10.8 2.5 -2.2
v -10.8 3.4 -2.2
v -10.8 3.6 -2.2
v -10.8 3.7 -2.2
v -10.8 4 -2.2
v -10.8 4.6 -2.2
v -10.8 4.9 -2.2
v -10.8 5.4 -2.2
v -10.8 5.6 -2.2
v -10.8 5.9 -2.2
v -10.8 6.1 -2.2
v -10.8 7.2 -2.2
v -10.8 7.3 -2.2
v -10.8 7.6 -2.2
v -10.8 7.7 -2.2
v -10.8 8.3 -2.2
v -10.8 8.4 -2.2
v -10.8 9.2 -2.2
v -10.8 9.4 -2.2
v -10.8 10.1 -2.2
v -10.8 10.2 -2.2
v -10.7 2.5 -2.2
v -10.7 2.8 -2.2
v -10.7 3.4 -2.2
v -10.7 3.6 -2.2
v -10.7 4.5 -2.2
v -10.7 4.8 -2.2
v -10.7 6.2 -2.2
v -10.7 6.4 -2.2
v -10.7 7.2 -2.2
v -10.7 7.3 -2.2
v -10.7 7.6 -2.2
v -10.7 7.7 -2.2
v -10.7 7.9 -2.2
v -10.7 8.1 -2.2
v -10.7 8.3 -2.2
v -10.7 8.4 -2.2
v -10.7 9.2 -2.2
v -10.7 9.4 -2.2
v -10.7 9.8 -2.2
v -10.7 10 -2.2
v -10.6 2.2 -2.2
v -10.6 2.5 -2.2
v -10.6 2.8 -2.2
v -10.6 4.5 -2.2
v -10.6 4.8 -2.2
v -10.6 6.2 -2.2
v -10.6 6.4 -2.2
v -10.6 7.9 -2.2
v -10.6 8.1 -2.2
v -10.6 9.8 -2.2
v -10.6 10 -2.2
v -10.6 10.2 -2.2
v -11 2.2 -2.1
v -10.9 2.2 -2.1
v -10.8 2.2 -2.1
v -10.6 2.2 -2.1
v -11 2.2 -2.2
v -10.9 2.2 -2.2
v -10.8 2.2 -2.2
v -10.6 2.2 -2.2
v -11 10.2 -2.1
v -10.9 10.2 -2.1
v -10.8 10.2 -2.1
v -10.6 10.2 -2.1
v -11 10.2 -2.2
v -10.9 10.2 -2.2
v -10.8 10.2 -2.2
v -10.6 10.2 -2.2

# faces
f 3/3/1 2/3/1 1/3/1
f 4/3/1 2/3/1 3/3/1
f 5/2/1 4/2/1 3/2/1
f 6/2/1 4/2/1 5/2/1
f 7/3/1 6/3/1 5/3/1
f 8/3/1 6/3/1 7/3/1
f 9/2/1 8/2/1 7/2/1
f 10/2/1 8/2/1 9/2/1
f 11/3/1 10/3/1 9/3/1
f 12/3/1 10/3/1 11/3/1
f 13/1/1 12/1/1 11/1/1
f 14/1/1 12/1/1 13/1/1
f 15/3/1 14/3/1 13/3/1
f 16/3/1 14/3/1 15/3/1
f 17/2/1 16/2/1 15/2/1
f 18/2/1 16/2/1 17/2/1
f 19/3/1 18/3/1 17/3/1
f 20/3/1 18/3/1 19/3/1
f 21/2/1 20/2/1 19/2/1
f 22/2/1 20/2/1 21/2/1
f 23/3/1 22/3/1 21/3/1
f 24/3/1 22/3/1 23/3/1
f 25/3/2 26/3/2 27/3/2
f 27/3/2 26/3/2 28/3/2
f 27/1/2 28/1/2 29/1/2
f 29/1/2 28/1/2 30/1/2
f 29/3/2 30/3/2 31/3/2
f 31/3/2 30/3/2 32/3/2
f 31/2/2 32/2/2 33/2/2
f 33/2/2 32/2/2 34/2/2
f 33/3/2 34/3/2 35/3/2
f 35/3/2 34/3/2 36/3/2
f 35/1/2 36/1/2 37/1/2
f 37/1/2 36/1/2 38/1/2
f 37/3/2 38/3/2 39/3/2
f 39/3/2 38/3/2 40/3/2
f 39/2/2 40/2/2 41/2/2
f 41/2/2 40/2/2 42/2/2
f 41/3/2 42/3/2 43/3/2
f 43/3/2 42/3/2 44/3/2
f 43/2/2 44/2/2 45/2/2
f 45/2/2 44/2/2 46/2/2
f 45/3/2 46/3/2 47/3/2
f 47/3/2 46/3/2 48/3/2
f 61/3/3 50/3/3 49/3/3
f 62/3/3 50/3/3 61/3/3
f 63/2/3 51/2/3 50/2/3
f 63/3/3 50/3/3 62/3/3
f 64/3/3 52/3/3 51/3/3
f 64/2/3 51/2/3 63/2/3
f 65/3/3 52/3/3 64/3/3
f 66/3/3 52/3/3 65/3/3
f 67/3/3 52/3/3 66/3/3
f 68/3/3 52/3/3 67/3/3
f 69/3/3 52/3/3 68/3/3
f 70/3/3 52/3/3 69/3/3
f 71/3/3 52/3/3 70/3/3
f 72/3/3 52/3/3 71/3/3
f 73/2/3 53/2/3 52/2/3
f 73/3/3 52/3/3 72/3/3
f 74/3/3 54/3/3 53/3/3
f 74/2/3 53/2/3 73/2/3
f 75/1/3 55/1/3 54/1/3
f 75/3/3 54/3/3 74/3/3
f 76/3/3 56/3/3 55/3/3
f 76/1/3 55/1/3 75/1/3
f 77/2/3 57/2/3 56/2/3
f 77/3/3 56/3/3 76/3/3
f 78/3/3 58/3/3 57/3/3
f 78/2/3 57/2/3 77/2/3
f 79/2/3 59/2/3 58/2/3
f 79/3/3 58/3/3 78/3/3
f 80/3/3 60/3/3 59/3/3
f 80/2/3 59/2/3 79/2/3
f 81/3/3 60/3/3 80/3/3
f 82/3/3 60/3/3 81/3/3
f 83/2/3 62/2/3 61/2/3
f 84/3/3 63/3/3 62/3/3
f 84/2/3 62/2/3 83/2/3
f 84/3/3 64/3/3 63/3/3
f 84/3/3 65/3/3 64/3/3
f 85/3/3 65/3/3 84/3/3
f 86/3/3 65/3/3 85/3/3
f 87/1/3 66/1/3 65/1/3
f 87/3/3 65/3/3 86/3/3
f 88/3/3 67/3/3 66/3/3
f 88/1/3 66/1/3 87/1/3
f 89/1/3 68/1/3 67/1/3
f 89/3/3 67/3/3 88/3/3
f 90/3/3 69/3/3 68/3/3
f 90/1/3 68/1/3 89/1/3
f 91/2/3 70/2/3 69/2/3
f 91/3/3 69/3/3 90/3/3
f 92/3/3 71/3/3 70/3/3
f 92/2/3 70/2/3 91/2/3
f 93/1/3 72/1/3 71/1/3
f 93/3/3 71/3/3 92/3/3
f 94/3/3 79/3/3 78/3/3
f 94/1/3 72/1/3 93/1/3
f 94/3/3 73/3/3 72/3/3
f 94/3/3 74/3/3 73/3/3
f 94/3/3 75/3/3 74/3/3
f 94/3/3 80/3/3 79/3/3
f 94/3/3 76/3/3 75/3/3
f 94/3/3 77/3/3 76/3/3
f 94/3/3 78/3/3 77/3/3
f 94/3/3 81/3/3 80/3/3
f 95/3/3 81/3/3 94/3/3
f 96/3/3 81/3/3 95/3/3
f 97/3/3 81/3/3 96/3/3
f 98/3/3 81/3/3 97/3/3
f 99/3/3 81/3/3 98/3/3
f 100/3/3 81/3/3 99/3/3
f 101/3/3 81/3/3 100/3/3
f 102/3/3 81/3/3 101/3/3
f 103/2/3 82/2/3 81/2/3
f 103/3/3 81/3/3 102/3/3
f 104/2/3 82/2/3 103/2/3
f 105/3/3 85/3/3 84/3/3
f 105/3/3 84/3/3 83/3/3
f 106/3/3 85/3/3 105/3/3
f 107/1/3 86/1/3 85/1/3
f 107/3/3 85/3/3 106/3/3
f 108/3/3 93/3/3 92/3/3
f 108/1/3 86/1/3 107/1/3
f 108/3/3 92/3/3 91/3/3
f 108/3/3 91/3/3 90/3/3
f 108/3/3 90/3/3 89/3/3
f 108/3/3 89/3/3 88/3/3
f 108/3/3 88/3/3 87/3/3
f 108/3/3 87/3/3 86/3/3
f 108/3/3 94/3/3 93/3/3
f 108/3/3 95/3/3 94/3/3
f 109/3/3 95/3/3 108/3/3
f 110/3/3 95/3/3 109/3/3
f 111/3/3 95/3/3 110/3/3
f 112/3/3 95/3/3 111/3/3
f 113/2/3 96/2/3 95/2/3
f 113/3/3 95/3/3 112/3/3
f 114/3/3 97/3/3 96/3/3
f 114/2/3 96/2/3 113/2/3
f 115/2/3 98/2/3 97/2/3
f 115/3/3 97/3/3 114/3/3
f 116/3/3 99/3/3 98/3/3
f 116/2/3 98/2/3 115/2/3
f 117/3/3 99/3/3 116/3/3
f 118/3/3 99/3/3 117/3/3
f 119/1/3 100/1/3 99/1/3
f 119/3/3 99/3/3 118/3/3
f 120/3/3 101/3/3 100/3/3
f 120/1/3 100/1/3 119/1/3
f 121/2/3 102/2/3 101/2/3
f 121/3/3 101/3/3 120/3/3
f 122/3/3 104/3/3 103/3/3
f 122/2/3 102/2/3 121/2/3
f 122/3/3 103/3/3 102/3/3
f 123/3/3 104/3/3 122/3/3
f 124/3/3 104/3/3 123/3/3
f 125/3/3 105/3/3 83/3/3
f 126/1/3 106/1/3 105/1/3
f 126/3/3 105/3/3 125/3/3
f 127/3/3 107/3/3 106/3/3
f 127/1/3 106/1/3 126/1/3
f 127/3/3 108/3/3 107/3/3
f 127/3/3 109/3/3 108/3/3
f 128/2/3 110/2/3 109/2/3
f 128/3/3 109/3/3 127/3/3
f 129/3/3 111/3/3 110/3/3
f 129/2/3 110/2/3 128/2/3
f 130/1/3 112/1/3 111/1/3
f 130/3/3 111/3/3 129/3/3
f 131/3/3 117/3/3 116/3/3
f 131/1/3 112/1/3 130/1/3
f 131/3/3 115/3/3 114/3/3
f 131/3/3 114/3/3 113/3/3
f 131/3/3 116/3/3 115/3/3
f 131/3/3 113/3/3 112/3/3
f 132/2/3 118/2/3 117/2/3
f 132/3/3 117/3/3 131/3/3
f 133/3/3 121/3/3 120/3/3
f 133/2/3 118/2/3 132/2/3
f 133/3/3 119/3/3 118/3/3
f 133/3/3 123/3/3 122/3/3
f 133/3/3 122/3/3 121/3/3
f 133/3/3 120/3/3 119/3/3
f 134/2/3 124/2/3 123/2/3
f 134/3/3 123/3/3 133/3/3
f 135/3/3 104/3/3 124/3/3
f 135/2/3 124/2/3 134/2/3
f 136/3/3 104/3/3 135/3/3
f 137/3/4 138/3/4 149/3/4
f 149/3/4 138/3/4 150/3/4
f 138/2/4 139/2/4 151/2/4
f 150/3/4 138/3/4 151/3/4
f 139/3/4 140/3/4 152/3/4
f 151/2/4 139/2/4 152/2/4
f 152/3/4 140/3/4 153/3/4
f 153/3/4 140/3/4 154/3/4
f 154/3/4 140/3/4 155/3/4
f 155/3/4 140/3/4 156/3/4
f 156/3/4 140/3/4 157/3/4
f 157/3/4 140/3/4 158/3/4
f 158/3/4 140/3/4 159/3/4
f 159/3/4 140/3/4 160/3/4
f 140/2/4 141/2/4 161/2/4
f 160/3/4 140/3/4 161/3/4
f 141/3/4 142/3/4 162/3/4
f 161/2/4 141/2/4 162/2/4
f 142/1/4 143/1/4 163/1/4
f 162/3/4 142/3/4 163/3/4
f 143/3/4 144/3/4 164/3/4
f 163/1/4 143/1/4 164/1/4
f 144/2/4 145/2/4 165/2/4
f 164/3/4 144/3/4 165/3/4
f 145/3/4 146/3/4 166/3/4
f 165/2/4 145/2/4 166/2/4
f 146/2/4 147/2/4 167/2/4
f 166/3/4 146/3/4 167/3/4
f 147/3/4 148/3/4 168/3/4
f 167/2/4 147/2/4 168/2/4
f 168/3/4 148/3/4 169/3/4
f 169/3/4 148/3/4 170/3/4
f 149/2/4 150/2/4 171/2/4
f 150/3/4 151/3/4 172/3/4
f 171/2/4 150/2/4 172/2/4
f 151/3/4 152/3/4 172/3/4
f 152/3/4 153/3/4 172/3/4
f 172/3/4 153/3/4 173/3/4
f 173/3/4 153/3/4 174/3/4
f 153/1/4 154/1/4 175/1/4
f 174/3/4 153/3/4 175/3/4
f 154/3/4 155/3/4 176/3/4
f 175/1/4 154/1/4 176/1/4
f 155/1/4 156/1/4 177/1/4
f 176/3/4 155/3/4 177/3/4
f 156/3/4 157/3/4 178/3/4
f 177/1/4 156/1/4 178/1/4
f 157/2/4 158/2/4 179/2/4
f 178/3/4 157/3/4 179/3/4
f 158/3/4 159/3/4 180/3/4
f 179/2/4 158/2/4 180/2/4
f 159/1/4 160/1/4 181/1/4
f 180/3/4 159/3/4 181/3/4
f 166/3/4 167/3/4 182/3/4
f 181/1/4 160/1/4 182/1/4
f 160/3/4 161/3/4 182/3/4
f 161/3/4 162/3/4 182/3/4
f 162/3/4 163/3/4 182/3/4
f 167/3/4 168/3/4 182/3/4
f 163/3/4 164/3/4 182/3/4
f 164/3/4 165/3/4 182/3/4
f 165/3/4 166/3/4 182/3/4
f 168/3/4 169/3/4 182/3/4
f 182/3/4 169/3/4 183/3/4
f 183/3/4 169/3/4 184/3/4
f 184/3/4 169/3/4 185/3/4
f 185/3/4 169/3/4 186/3/4
f 186/3/4 169/3/4 187/3/4
f 187/3/4 169/3/4 188/3/4
f 188/3/4 169/3/4 189/3/4
f 189/3/4 169/3/4 190/3/4
f 169/2/4 170/2/4 191/2/4
f 190/3/4 169/3/4 191/3/4
f 191/2/4 170/2/4 192/2/4
f 172/3/4 173/3/4 193/3/4
f 171/3/4 172/3/4 193/3/4
f 193/3/4 173/3/4 194/3/4
f 173/1/4 174/1/4 195/1/4
f 194/3/4 173/3/4 195/3/4
f 180/3/4 181/3/4 196/3/4
f 195/1/4 174/1/4 196/1/4
f 179/3/4 180/3/4 196/3/4
f 178/3/4 179/3/4 196/3/4
f 177/3/4 178/3/4 196/3/4
f 176/3/4 177/3/4 196/3/4
f 175/3/4 176/3/4 196/3/4
f 174/3/4 175/3/4 196/3/4
f 181/3/4 182/3/4 196/3/4
f 182/3/4 183/3/4 196/3/4
f 196/3/4 183/3/4 197/3/4
f 197/3/4 183/3/4 198/3/4
f 198/3/4 183/3/4 199/3/4
f 199/3/4 183/3/4 200/3/4
f 183/2/4 184/2/4 201/2/4
f 200/3/4 183/3/4 201/3/4
f 184/3/4 185/3/4 202/3/4
f 201/2/4 184/2/4 202/2/4
f 185/2/4 186/2/4 203/2/4
f 202/3/4 185/3/4 203/3/4
f 186/3/4 187/3/4 204/3/4
f 203/2/4 186/2/4 204/2/4
f 204/3/4 187/3/4 205/3/4
f 205/3/4 187/3/4 206/3/4
f 187/1/4 188/1/4 207/1/4
f 206/3/4 187/3/4 207/3/4
f 188/3/4 189/3/4 208/3/4
f 207/1/4 188/1/4 208/1/4
f 189/2/4 190/2/4 209/2/4
f 208/3/4 189/3/4 209/3/4
f 191/3/4 192/3/4 210/3/4
f 209/2/4 190/2/4 210/2/4
f 190/3/4 191/3/4 210/3/4
f 210/3/4 192/3/4 211/3/4
f 211/3/4 192/3/4 212/3/4
f 171/3/4 193/3/4 213/3/4
f 193/1/4 194/1/4 214/1/4
f 213/3/4 193/3/4 214/3/4
f 194/3/4 195/3/4 215/3/4
f 214/1/4 194/1/4 215/1/4
f 195/3/4 196/3/4 215/3/4
f 196/3/4 197/3/4 215/3/4
f 197/2/4 198/2/4 216/2/4
f 215/3/4 197/3/4 216/3/4
f 198/3/4 199/3/4 217/3/4
f 216/2/4 198/2/4 217/2/4
f 199/1/4 200/1/4 218/1/4
f 217/3/4 199/3/4 218/3/4
f 204/3/4 205/3/4 219/3/4
f 218/1/4 200/1/4 219/1/4
f 202/3/4 203/3/4 219/3/4
f 201/3/4 202/3/4 219/3/4
f 203/3/4 204/3/4 219/3/4
f 200/3/4 201/3/4 219/3/4
f 205/2/4 206/2/4 220/2/4
f 219/3/4 205/3/4 220/3/4
f 208/3/4 209/3/4 221/3/4
f 220/2/4 206/2/4 221/2/4
f 206/3/4 207/3/4 221/3/4
f 210/3/4 211/3/4 221/3/4
f 209/3/4 210/3/4 221/3/4
f 207/3/4 208/3/4 221/3/4
f 211/2/4 212/2/4 222/2/4
f 221/3/4 211/3/4 222/3/4
f 212/3/4 192/3/4 223/3/4
f 222/2/4 212/2/4 223/2/4
f 223/3/4 192/3/4 224/3/4
f 229/3/5 226/3/5 225/3/5
f 230/2/5 227/2/5 226/2/5
f 230/3/5 226/3/5 229/3/5
f 231/3/5 228/3/5 227/3/5
f 231/2/5 227/2/5 230/2/5
f 232/3/5 228/3/5 231/3/5
f 233/3/6 234/3/6 237/3/6
f 234/2/6 235/2/6 238/2/6
f 237/3/6 234/3/6 238/3/6
f 235/3/6 236/3/6 239/3/6
f 238/2/6 235/2/6 239/2/6
f 239/3/6 236/3/6 240/3/6
